<svg id="wave" style="transform:rotate(0deg); transition: 0.3s" 
     viewBox="0 0 4440 250" version="1.1" xmlns="http://www.w3.org/2000/svg">
    <defs>
        <linearGradient id="sw-gradient-0" x1="0" x2="0" y1="1" y2="0">
            <stop stop-color="rgb(185, 92, 78)" offset="0%"></stop>
            <stop stop-color="rgb(185, 82, 82)" offset="100%"></stop>
        </linearGradient>
    </defs>

    <path style="transform:translate(0, 0px); opacity:1" 
    fill="url(#sw-gradient-0)"
    d="M0,0L40,4.5C80,9,160,18,240,40.5C320,63,400,99,480,99C560,99,640,63,720,
    40.5C800,18,880,9,960,40.5C1040,72,1120,144,1200,171C1280,198,1360,180,1440,
    153C1520,126,1600,90,1680,94.5C1760,99,1840,144,1920,153C2000,162,2080,135,
    2160,144C2240,153,2320,198,2400,189C2480,180,2560,117,2640,99C2720,81,2800,
    108,2880,121.5C2960,135,3040,135,3120,112.5C3200,90,3280,45,3360,49.5C3440,
    54,3520,108,3600,117C3680,126,3760,90,3840,72C3920,54,4000,54,4080,76.5C4160,
    99,4240,144,4320,139.5C4400,135,4480,81,4560,49.5C4640,18,4720,9,4800,36C4880,
    63,4960,126,5040,148.5C5120,171,5200,153,5280,144C5360,135,5440,135,5520,
    130.5C5600,126,5680,117,5720,112.5L5760,108L5760,270L5720,270C5680,270,5600,
    270,5520,270C5440,270,5360,270,5280,270C5200,270,5120,270,5040,270C4960,270,
    4880,270,4800,270C4720,270,4640,270,4560,270C4480,270,4400,270,4320,270C4240,
    270,4160,270,4080,270C4000,270,3920,270,3840,270C3760,270,3680,270,3600,270C3520,
    270,3440,270,3360,270C3280,270,3200,270,3120,270C3040,270,2960,270,2880,270C2800,
    270,2720,270,2640,270C2560,270,2480,270,2400,270C2320,270,2240,270,2160,270C2080,
    270,2000,270,1920,270C1840,270,1760,270,1680,270C1600,270,1520,270,1440,270C1360,
    270,1280,270,1200,270C1120,270,1040,270,960,270C880,270,800,270,720,270C640,270,
    560,270,480,270C400,270,320,270,240,270C160,270,80,270,40,270L0,270Z">
    </path>
</svg>
